<svg version="1.1" id="Layer_1" xmlns="http://www.w3.org/2000/svg" xmlns:xlink="http://www.w3.org/1999/xlink" x="0px" y="0px" style="enable-background:new 0 0 1920 1080;" xml:space="preserve" viewBox="858.77 361.77 202.15 354.47"><script xmlns="" id="argent-x-extension" data-extension-id="{51e0c76c-7dbc-41ba-a45d-c579be84301b}"/><script xmlns=""/>
    <linearGradient id="z0" gradientUnits="userSpaceOnUse" x1="959.9056" y1="513.9498" x2="959.9056" y2="564.3069">
        <stop offset="0.3766" style="stop-color:#8af9a8"/>
        <stop offset="0.59" style="stop-color:#5fe49e"/>
        <stop offset="0.8919" style="stop-color:#0ce6ed"/>
    </linearGradient>
    <linearGradient id="z1" gradientUnits="userSpaceOnUse" x1="-44.5145" y1="512.3994" x2="-44.5145" y2="614.2628" gradientTransform="matrix(-1 0 0 1 990.8245 0)">
        <stop offset="0.3766" style="stop-color:#0bb9b0"/>
        <stop offset="0.59" style="stop-color:#02bfbf"/>
        <stop offset="0.8919" style="stop-color:#0ad4f6"/>
    </linearGradient>
    <linearGradient id="z2" gradientUnits="userSpaceOnUse" x1="884.2543" y1="512.3994" x2="884.2543" y2="614.2628">
        <stop offset="0.3766" style="stop-color:#0bb9b0"/>
        <stop offset="0.59" style="stop-color:#02bfbf"/>
        <stop offset="0.8919" style="stop-color:#0ad4f6"/>
    </linearGradient>
    <linearGradient id="z3" gradientUnits="userSpaceOnUse" x1="959.9056" y1="513.9498" x2="959.9056" y2="614.3379">
        <stop offset="0.3766" style="stop-color:#0bb9b0"/>
        <stop offset="0.59" style="stop-color:#02bfbf"/>
        <stop offset="0.8919" style="stop-color:#0ad4f6"/>
    </linearGradient>
    <linearGradient id="z4" gradientUnits="userSpaceOnUse" x1="959.9056" y1="513.9498" x2="959.9056" y2="665.0665">
        <stop offset="0" style="stop-color:#0ad4f6"/>
        <stop offset="1" style="stop-color:#5665d8"/>
    </linearGradient>
    <linearGradient id="z5" gradientUnits="userSpaceOnUse" x1="812.9784" y1="248.9796" x2="916.1506" y2="350.1927" gradientTransform="matrix(0.9803 0.9803 -0.9993 0.9993 411.6993 -531.8133)">
        <stop offset="0.3766" style="stop-color:#008ed5"/>
        <stop offset="0.59" style="stop-color:#645ed8"/>
        <stop offset="0.8919" style="stop-color:#c05cd7"/>
    </linearGradient>
    <linearGradient id="z6" gradientUnits="userSpaceOnUse" x1="671.9232" y1="261.1255" x2="697.759" y2="286.4706" gradientTransform="matrix(1.5288 1.5288 -1.5466 1.5466 336.3963 -1069.2466)">
        <stop offset="0.1494" style="stop-color:#ff1d25"/>
        <stop offset="0.7205" style="stop-color:#fe4088"/>
    </linearGradient>
    <linearGradient id="z7" gradientUnits="userSpaceOnUse" x1="735.4954" y1="173.0768" x2="811.3165" y2="247.4582" gradientTransform="matrix(0.9803 0.9803 -0.9993 0.9993 411.6993 -531.8133)">
        <stop offset="0.1459" style="stop-color:#fa35af"/>
        <stop offset="0.5516" style="stop-color:#ff4283"/>
        <stop offset="0.8914" style="stop-color:#ffa544"/>
    </linearGradient>
    <linearGradient id="z8" gradientUnits="userSpaceOnUse" x1="735.4877" y1="172.9603" x2="838.6599" y2="274.1734" gradientTransform="matrix(0.9803 0.9803 -0.9993 0.9993 411.6993 -531.8133)">
        <stop offset="0" style="stop-color:#fa35af"/>
        <stop offset="0.3152" style="stop-color:#f97f56"/>
        <stop offset="0.5748" style="stop-color:#fac534"/>
        <stop offset="0.8914" style="stop-color:#adfa83"/>
    </linearGradient>
    <linearGradient id="z9" gradientUnits="userSpaceOnUse" x1="735.4877" y1="172.9603" x2="864.3182" y2="299.3446" gradientTransform="matrix(0.9803 0.9803 -0.9993 0.9993 411.6993 -531.8133)">
        <stop offset="0.3535" style="stop-color:#90b325"/>
        <stop offset="0.6436" style="stop-color:#44e66b"/>
        <stop offset="1" style="stop-color:#1feda9"/>
    </linearGradient>
    <polygon style="fill:url(#z9);" points="959.8,614.6 858.8,512.4 858.8,462.3 959.8,362 1060.9,462.3 1060.9,512.4"/>
    <polygon style="fill:url(#z8);" points="959.8,564.3 858.8,462.3 959.8,362 1060.9,462.3"/>
    <polygon style="fill:url(#z7);" points="959.8,510.8 885.4,435.8 959.8,362.1 1034.1,435.8"/>
    <polygon style="fill:url(#z6);" points="960.1,440.5 920.6,400.6 959.8,361.8 999.3,400.9"/>
    <polygon style="fill:url(#z5);" points="960.1,716.2 858.8,614.3 960.1,513.9 1060.9,614.3"/>
    <polygon style="fill:url(#z4);" points="959.5,665.1 1035.5,588.4 960.4,513.9 884.3,589.3"/>
    <polygon style="fill:url(#z3);" points="959.6,614.3 1010.1,563.4 960.2,513.9 909.7,564"/>
    <polygon style="fill:url(#z2);" points="858.8,614.3 909.7,564 858.8,512.4"/>
    <polygon style="fill:url(#z1);" points="1060.9,614.3 1009.7,563.4 1060.9,512.4"/>
    <polygon style="fill:url(#z0);" points="959.8,564.3 985.1,538.8 960.1,513.9 934.7,539.1"/>
</svg>